<svg width="30" height="30" viewBox="0 0 30 30" fill="none" xmlns="http://www.w3.org/2000/svg">
<path d="M15.1597 19.8144C12.3779 19.9045 10.0955 17.6221 10.1857 14.8405C10.2679 12.3168 12.3165 10.2683 14.84 10.1861C17.6222 10.0956 19.9045 12.378 19.814 15.1601C19.7317 17.6837 17.6837 19.7321 15.1597 19.8144ZM15.1087 7.21284C10.7281 7.15291 7.15253 10.7285 7.21229 15.1086C7.26998 19.3093 10.6903 22.7297 14.8906 22.7877C19.2715 22.848 22.8475 19.2719 22.7874 14.891C22.7297 10.6904 19.3093 7.26985 15.1087 7.21284Z" fill="white"/>
<path d="M27.0285 21.3675C27.0285 24.4942 24.4938 27.0288 21.367 27.0288H8.63271C5.50581 27.0288 2.97115 24.4942 2.97115 21.3678V8.63253C2.97115 5.50632 5.50581 2.97167 8.63219 2.97167H21.367C24.4938 2.97167 27.0285 5.50632 27.0285 8.63305V21.3675ZM21.3675 0H8.63271C3.86492 0 0 3.86526 0 8.63305V21.3675C0 26.1351 3.86492 30 8.63271 30H21.3675C26.1353 30 30 26.1351 30 21.3675V8.63253C30 3.86526 26.1353 0 21.3675 0Z" fill="white"/>
<path d="M23.0272 4.96389C21.7986 4.88507 20.7819 5.90196 20.8602 7.13057C20.9248 8.1459 21.7446 8.96618 22.7601 9.03126C23.9892 9.11042 25.0068 8.09319 24.9276 6.86424C24.8625 5.84873 24.0424 5.02897 23.0272 4.96389Z" fill="white"/>
</svg>
