<svg width="48" height="77" viewBox="0 0 48 77" fill="none" xmlns="http://www.w3.org/2000/svg">
<mask id="mask0_65_143" style="mask-type:luminance" maskUnits="userSpaceOnUse" x="19" y="16" width="4" height="4">
<path d="M19.4847 16.5114H22.3018V19.3285H19.4847V16.5114Z" fill="white"/>
</mask>
<g mask="url(#mask0_65_143)">
<mask id="mask1_65_143" style="mask-type:luminance" maskUnits="userSpaceOnUse" x="19" y="16" width="4" height="4">
<path d="M22.2868 17.9045C22.2868 18.669 21.6666 19.2889 20.9018 19.2889C20.1374 19.2889 19.5172 18.669 19.5172 17.9045C19.5172 17.1394 20.1374 16.5195 20.9018 16.5195C21.6666 16.5195 22.2868 17.1394 22.2868 17.9045Z" fill="white"/>
</mask>
<g mask="url(#mask1_65_143)">
<mask id="mask2_65_143" style="mask-type:luminance" maskUnits="userSpaceOnUse" x="19" y="16" width="4" height="4">
<path d="M22.2868 17.9045C22.2868 18.669 21.6666 19.2889 20.9018 19.2889C20.1374 19.2889 19.5172 18.669 19.5172 17.9045C19.5172 17.1394 20.1374 16.5195 20.9018 16.5195C21.6666 16.5195 22.2868 17.1394 22.2868 17.9045Z" fill="white"/>
</mask>
<g mask="url(#mask2_65_143)">
<path d="M22.2868 16.5195H19.5172V19.2889H22.2868V16.5195Z" fill="white"/>
</g>
</g>
</g>
<mask id="mask3_65_143" style="mask-type:luminance" maskUnits="userSpaceOnUse" x="26" y="0" width="5" height="4">
<path d="M26.4492 0H30.0488V3.52134H26.4492V0Z" fill="white"/>
</mask>
<g mask="url(#mask3_65_143)">
<mask id="mask4_65_143" style="mask-type:luminance" maskUnits="userSpaceOnUse" x="26" y="0" width="4" height="4">
<path d="M29.973 1.75761C29.973 2.72782 29.1865 3.51523 28.2154 3.51523C27.2452 3.51523 26.4578 2.72782 26.4578 1.75761C26.4578 0.787105 27.2452 0 28.2154 0C29.1865 0 29.973 0.787105 29.973 1.75761Z" fill="white"/>
</mask>
<g mask="url(#mask4_65_143)">
<mask id="mask5_65_143" style="mask-type:luminance" maskUnits="userSpaceOnUse" x="26" y="0" width="4" height="4">
<path d="M29.973 1.75761C29.973 2.72782 29.1865 3.51523 28.2154 3.51523C27.2452 3.51523 26.4578 2.72782 26.4578 1.75761C26.4578 0.787105 27.2452 0 28.2154 0C29.1865 0 29.973 0.787105 29.973 1.75761Z" fill="white"/>
</mask>
<g mask="url(#mask5_65_143)">
<path d="M29.973 0H26.4578V3.51523H29.973V0Z" fill="white"/>
</g>
</g>
</g>
<path d="M29.4518 11.436C28.4443 10.4286 26.811 10.4286 25.8036 11.436C24.7961 12.4434 24.7961 14.0768 25.8036 15.0842C26.811 16.0916 28.4443 16.0916 29.4518 15.0842C30.4592 14.0768 30.4592 12.4434 29.4518 11.436Z" fill="white"/>
<mask id="mask6_65_143" style="mask-type:luminance" maskUnits="userSpaceOnUse" x="16" y="5" width="6" height="6">
<path d="M16.9807 5.79071H21.2846V10.0946H16.9807V5.79071Z" fill="white"/>
</mask>
<g mask="url(#mask6_65_143)">
<mask id="mask7_65_143" style="mask-type:luminance" maskUnits="userSpaceOnUse" x="17" y="5" width="5" height="6">
<path d="M21.2735 7.93925C21.2735 9.11456 20.3208 10.0667 19.1455 10.0667C17.9698 10.0667 17.0171 9.11456 17.0171 7.93925C17.0171 6.76394 17.9698 5.81085 19.1455 5.81085C20.3208 5.81085 21.2735 6.76394 21.2735 7.93925Z" fill="white"/>
</mask>
<g mask="url(#mask7_65_143)">
<mask id="mask8_65_143" style="mask-type:luminance" maskUnits="userSpaceOnUse" x="17" y="5" width="5" height="6">
<path d="M21.2735 7.93925C21.2735 9.11456 20.3208 10.0667 19.1455 10.0667C17.9698 10.0667 17.0171 9.11456 17.0171 7.93925C17.0171 6.76394 17.9698 5.81085 19.1455 5.81085C20.3208 5.81085 21.2735 6.76394 21.2735 7.93925Z" fill="white"/>
</mask>
<g mask="url(#mask8_65_143)">
<path d="M21.2735 5.81085H17.0171V10.0667H21.2735V5.81085Z" fill="white"/>
</g>
</g>
</g>
<mask id="mask9_65_143" style="mask-type:luminance" maskUnits="userSpaceOnUse" x="0" y="21" width="48" height="56">
<path d="M0 21.1279H47.1077V76.9998H0V21.1279Z" fill="white"/>
</mask>
<g mask="url(#mask9_65_143)">
<mask id="mask10_65_143" style="mask-type:luminance" maskUnits="userSpaceOnUse" x="0" y="21" width="48" height="56">
<path d="M32.2212 72.9169H14.8868C8.52333 69.7342 4.15436 63.155 4.15436 55.5566C4.15436 44.8425 12.8397 36.1571 23.5538 36.1571C34.2682 36.1571 42.9533 44.8425 42.9533 55.5566C42.9533 63.155 38.5843 69.7342 32.2212 72.9169ZM30.9548 33.2728C28.3468 32.4059 26.5314 29.9847 26.5791 27.2364C26.5861 26.868 26.6252 26.5089 26.7026 26.1738C26.7347 26.0354 26.7707 25.9006 26.8123 25.767C27.1941 24.5345 27.9885 23.4891 29.0792 22.8808C29.0792 22.4077 28.8866 21.9779 28.5769 21.6679C28.2661 21.3574 27.8366 21.1648 27.3631 21.1648H19.7442C18.7967 21.1648 18.0285 21.9333 18.0285 22.8808C18.5738 23.1847 19.0449 23.5986 19.4282 24.0901C19.8103 24.5813 20.104 25.1511 20.2957 25.767C20.3372 25.9006 20.3727 26.0354 20.4051 26.1738C20.4821 26.5089 20.5216 26.868 20.5286 27.2364C20.5763 29.9847 18.7612 32.4059 16.1526 33.2728C6.81982 36.3708 0.0855602 45.1665 0.0773071 55.5364C0.0724163 62.4116 3.04477 68.613 7.77352 72.9169C9.60663 74.5853 11.7045 75.9672 13.9952 76.994H33.1373C35.4286 75.9678 37.5249 74.5859 39.3577 72.9169C44.0724 68.624 47.0304 62.4357 47.0304 55.5566C47.0304 45.1772 40.2943 36.3732 30.9548 33.2728Z" fill="white"/>
</mask>
<g mask="url(#mask10_65_143)">
<mask id="mask11_65_143" style="mask-type:luminance" maskUnits="userSpaceOnUse" x="0" y="21" width="48" height="56">
<path d="M32.2212 72.9169H14.8868C8.52333 69.7342 4.15436 63.155 4.15436 55.5566C4.15436 44.8425 12.8397 36.1571 23.5538 36.1571C34.2682 36.1571 42.9533 44.8425 42.9533 55.5566C42.9533 63.155 38.5843 69.7342 32.2212 72.9169ZM30.9548 33.2728C28.3468 32.4059 26.5314 29.9847 26.5791 27.2364C26.5861 26.868 26.6252 26.5089 26.7026 26.1738C26.7347 26.0354 26.7707 25.9006 26.8123 25.767C27.1941 24.5345 27.9885 23.4891 29.0792 22.8808C29.0792 22.4077 28.8866 21.9779 28.5769 21.6679C28.2661 21.3574 27.8366 21.1648 27.3631 21.1648H19.7442C18.7967 21.1648 18.0285 21.9333 18.0285 22.8808C18.5738 23.1847 19.0449 23.5986 19.4282 24.0901C19.8103 24.5813 20.104 25.1511 20.2957 25.767C20.3372 25.9006 20.3727 26.0354 20.4051 26.1738C20.4821 26.5089 20.5216 26.868 20.5286 27.2364C20.5763 29.9847 18.7612 32.4059 16.1526 33.2728C6.81982 36.3708 0.0855602 45.1665 0.0773071 55.5364C0.0724163 62.4116 3.04477 68.613 7.77352 72.9169C9.60663 74.5853 11.7045 75.9672 13.9952 76.994H33.1373C35.4286 75.9678 37.5249 74.5859 39.3577 72.9169C44.0724 68.624 47.0304 62.4357 47.0304 55.5566C47.0304 45.1772 40.2943 36.3732 30.9548 33.2728Z" fill="white"/>
</mask>
<g mask="url(#mask11_65_143)">
<path d="M47.0304 21.1648H0.0724487V76.994H47.0304V21.1648Z" fill="white"/>
</g>
</g>
</g>
<path d="M20.5141 60.0814C20.675 60.1816 20.8385 60.2778 21.0026 60.3635C21.2036 60.4685 21.4104 60.5601 21.6224 60.6272C21.746 60.6661 21.8722 60.6968 22.0001 60.7193C22.1299 60.742 22.2602 60.7563 22.3889 60.7621C22.5153 60.7673 22.6434 60.765 22.7696 60.7535C22.8883 60.7427 23.0069 60.7236 23.1228 60.6953C23.2217 60.6709 23.3186 60.6395 23.4121 60.6003C23.5024 60.5626 23.5897 60.5179 23.6727 60.4659C23.6937 60.4527 23.7166 60.4376 23.7414 60.4205C23.7658 60.4034 23.7882 60.3873 23.8076 60.3722L23.808 60.3717C23.864 60.3289 23.9172 60.2824 23.9681 60.2331C24.0179 60.1845 24.0659 60.1319 24.112 60.0757C24.1784 59.9948 24.2383 59.9092 24.2931 59.8208C24.3487 59.7316 24.4 59.6384 24.4484 59.5437C24.4921 59.4584 24.5311 59.3768 24.5673 59.2979C24.5993 59.2285 24.6295 59.1604 24.6589 59.0931C24.5329 58.887 24.439 58.666 24.3621 58.439C24.2803 58.1966 24.2184 57.9509 24.1578 57.7086L24.1568 57.7041C24.1316 57.5986 24.1515 57.4921 24.2036 57.4054C24.2564 57.3178 24.3424 57.2502 24.4494 57.2237L24.4539 57.2226C24.5595 57.1975 24.6659 57.2174 24.7527 57.2694C24.8406 57.3221 24.9082 57.4082 24.9349 57.5147L24.9499 57.5758C25.0546 57.9949 25.1734 58.4715 25.4305 58.8069L25.4315 58.8081C25.4926 58.8877 25.561 58.9608 25.6348 59.0274C25.7137 59.0987 25.7998 59.1638 25.8901 59.222C25.9904 59.2871 26.0963 59.3441 26.2055 59.394C26.3213 59.4468 26.4413 59.492 26.563 59.5294C26.6858 59.5671 26.8123 59.5977 26.9407 59.6201C27.0662 59.6416 27.1923 59.6555 27.317 59.6605C27.4342 59.665 27.5527 59.6618 27.6702 59.6497C27.7799 59.6382 27.8896 59.6186 27.997 59.5896C28.1047 59.5608 28.2086 59.5228 28.3084 59.4766C28.4116 59.4289 28.5112 59.3721 28.6067 59.3077C28.7094 59.2383 28.806 59.161 28.8966 59.0778C28.9939 58.9885 29.085 58.8917 29.17 58.79C29.2511 58.6931 29.3277 58.5908 29.3998 58.4854C29.4782 58.3706 29.5509 58.2529 29.6181 58.1346C29.6857 58.0153 29.7512 57.8897 29.8108 57.7609C29.8636 57.6463 29.9117 57.5291 29.9521 57.4109C29.9778 57.3369 29.9997 57.2628 30.0168 57.1889C30.0287 57.1372 30.0382 57.0847 30.045 57.0318C29.8141 57.0403 29.5864 57.0205 29.3605 56.9858C29.1134 56.9476 28.8737 56.8924 28.6342 56.8371C28.5272 56.8122 28.44 56.7462 28.3856 56.6598C28.3313 56.5734 28.3097 56.4664 28.3338 56.3597L28.3343 56.3574C28.359 56.2507 28.4251 56.1635 28.5117 56.1096C28.5982 56.0553 28.7054 56.0337 28.8123 56.0576L28.8513 56.0666C29.2468 56.1582 29.6644 56.2552 30.0644 56.2303C30.1142 56.2273 30.164 56.2223 30.2133 56.2157C30.2639 56.209 30.3142 56.2002 30.3645 56.1896L30.3698 56.1887C30.4108 56.1801 30.453 56.1698 30.4966 56.158C30.5424 56.1457 30.5856 56.1326 30.6267 56.1191C30.7177 56.0887 30.8083 56.052 30.8963 56.0096C30.9791 55.9697 31.0601 55.924 31.1376 55.8722L31.1442 55.8684C31.2105 55.8237 31.274 55.7745 31.3333 55.7203L31.3388 55.7157C31.3932 55.6655 31.4443 55.6107 31.4906 55.5513C31.5361 55.4925 31.576 55.4309 31.6098 55.3666C31.644 55.3013 31.6725 55.233 31.6951 55.1622C31.7987 54.8382 31.7982 54.4239 31.7976 54.0687V53.9984H31.7972C31.7972 53.8881 31.8423 53.7881 31.9147 53.7158L31.9149 53.7156C31.9876 53.6432 32.0877 53.5983 32.1979 53.5983C32.3084 53.5983 32.4088 53.6432 32.4812 53.7156C32.5536 53.7879 32.5984 53.8879 32.5984 53.9984V54.0278H32.5982C32.5982 54.4794 32.5982 54.9651 32.4578 55.4048C32.4206 55.5213 32.374 55.6329 32.3182 55.7386C32.2626 55.8443 32.1974 55.9453 32.1232 56.041C32.0485 56.1372 31.966 56.2258 31.8777 56.307C31.7849 56.3918 31.6857 56.4689 31.5821 56.5377L31.5765 56.5412C31.4717 56.6106 31.3612 56.6731 31.2475 56.7281C31.1287 56.7853 31.0055 56.8351 30.8805 56.8771L30.8568 56.8846L30.856 56.9187C30.855 56.9584 30.8531 56.9951 30.8505 57.0282C30.8417 57.1377 30.8244 57.2467 30.7999 57.355C30.7755 57.4637 30.7451 57.5685 30.7102 57.6706C30.6664 57.7978 30.6148 57.9253 30.5582 58.0512C30.5135 58.1506 30.4646 58.2495 30.4135 58.3472C30.5708 58.4041 30.7275 58.458 30.8828 58.5052C31.0752 58.5635 31.2694 58.6135 31.4656 58.6491C31.5878 58.6713 31.7134 58.6878 31.8415 58.6989C31.9673 58.7096 32.0913 58.7145 32.2125 58.7129C32.3272 58.7114 32.4443 58.7042 32.562 58.6903C32.6729 58.6773 32.7816 58.6587 32.8863 58.6336L32.9383 58.6203L32.9977 58.6042C33.0802 58.5801 33.1622 58.5512 33.2419 58.5171V58.5166C33.3167 58.4844 33.3886 58.4475 33.4565 58.4052C33.5265 58.3619 33.5923 58.3123 33.6513 58.2566L33.6563 58.2523C33.7073 58.2033 33.7539 58.1486 33.7942 58.0876C33.8361 58.0233 33.8699 57.9539 33.8968 57.8826C33.9247 57.8086 33.9456 57.7319 33.961 57.6556C33.9818 57.5524 33.9942 57.4457 33.9995 57.3379C34.0047 57.2299 34.0032 57.1206 33.9966 57.0134C33.9903 56.9135 33.98 56.8145 33.965 56.7175C33.9501 56.6229 33.931 56.5287 33.9071 56.4366C33.8855 56.3534 33.8595 56.2695 33.8284 56.1872C33.8007 56.1138 33.7687 56.0422 33.732 55.9742C33.6654 55.8509 33.5854 55.7466 33.496 55.6502L33.4912 55.645C33.4017 55.5487 33.3006 55.4578 33.1944 55.3631C33.1121 55.29 33.0674 55.1901 33.0616 55.0878C33.0558 54.9857 33.0887 54.8814 33.1619 54.7993L33.1682 54.793C33.2409 54.7149 33.3388 54.6723 33.4385 54.6665C33.5408 54.6607 33.6452 54.6938 33.7273 54.7666L33.7331 54.7722C33.8716 54.8957 33.9995 55.0138 34.1159 55.1434C34.2359 55.2765 34.3433 55.4212 34.4372 55.5952C34.4683 55.6535 34.4978 55.714 34.5249 55.776L34.5347 55.7991C34.5979 55.707 34.656 55.6115 34.7076 55.5125C34.7861 55.3621 34.8495 55.2042 34.8925 55.0382C34.968 54.7488 34.9763 54.4562 34.9385 54.1677C34.9003 53.8758 34.8153 53.5872 34.7046 53.3093C34.6729 53.2299 34.6357 53.1506 34.5936 53.0727C34.5536 52.9996 34.5091 52.9278 34.4598 52.8589C34.4143 52.7956 34.3652 52.7354 34.3127 52.6799C34.2641 52.6283 34.2112 52.5797 34.1544 52.5357C34.1016 52.4947 34.0462 52.4583 33.9886 52.4267C33.9297 52.3943 33.8691 52.3669 33.8075 52.3448C33.7458 52.3228 33.6817 52.3052 33.6163 52.2928C33.5519 52.2806 33.487 52.2733 33.4228 52.2717C33.3609 52.2703 33.2973 52.2743 33.2329 52.282C33.168 52.2898 33.1041 52.3017 33.0417 52.3157C32.9051 52.3466 32.7645 52.391 32.6246 52.435L32.6044 52.4413C32.5009 52.4725 32.3939 52.4593 32.3046 52.4129C32.2135 52.3657 32.1406 52.2838 32.1074 52.1788L32.1058 52.1733C32.0747 52.0698 32.0877 51.9631 32.134 51.8737C32.1813 51.783 32.2633 51.7102 32.3688 51.677C32.4427 51.6537 32.5177 51.63 32.6138 51.602C32.6976 51.5775 32.7813 51.555 32.8651 51.5361C32.9602 51.5146 33.0553 51.4975 33.1504 51.4867C33.2459 51.4756 33.3431 51.4706 33.4425 51.4729L33.45 51.4731L33.4505 51.4339C33.451 51.3697 33.4488 51.3033 33.443 51.235C33.4377 51.1694 33.4288 51.1047 33.4162 51.0401C33.4014 50.9661 33.3816 50.8925 33.3567 50.8206C33.3312 50.7463 33.3014 50.6752 33.2674 50.6079C33.2322 50.5375 33.1919 50.4696 33.1476 50.4042C33.1024 50.3377 33.0523 50.2733 32.9982 50.2121C32.9345 50.1395 32.8651 50.0707 32.7926 50.0059C32.7126 49.9343 32.6286 49.8675 32.5431 49.8052C32.4523 49.7392 32.3562 49.6762 32.2558 49.6166C32.1542 49.5563 32.0515 49.5014 31.9484 49.4521C31.8468 49.4037 31.741 49.3592 31.6317 49.319C31.5252 49.28 31.4183 49.2464 31.3114 49.2188C31.2085 49.1921 31.1029 49.1704 30.9947 49.1538C30.8897 49.1379 30.7857 49.1274 30.6835 49.1231C30.5793 49.1189 30.4732 49.1203 30.3665 49.1289C30.2664 49.1367 30.1671 49.1507 30.0699 49.1718L30.0661 49.1726C29.9796 49.1912 29.8938 49.2158 29.8108 49.247C29.7328 49.2763 29.6576 49.3112 29.5872 49.3524C29.4858 49.4114 29.3914 49.4858 29.3024 49.5687C29.2402 49.6264 29.1806 49.6887 29.1232 49.7532C29.1836 49.7904 29.2427 49.8309 29.3003 49.8741C29.3743 49.9296 29.4448 49.9886 29.5101 50.0508C29.5849 50.1217 29.6548 50.1978 29.7197 50.2779C29.7849 50.3577 29.8455 50.4437 29.9016 50.5341C29.9575 50.6243 30.0073 50.7172 30.051 50.8118C30.095 50.9075 30.1336 51.0062 30.166 51.1074C30.1977 51.2059 30.2239 51.3066 30.2448 51.4085C30.2664 51.5138 30.2822 51.62 30.2928 51.726C30.3034 51.8325 30.3089 51.9405 30.3089 52.0489C30.3089 52.156 30.3034 52.2622 30.2926 52.3664C30.2822 52.4656 30.2664 52.5651 30.2445 52.6638C30.2224 52.7627 30.1939 52.8602 30.1584 52.9551C30.124 53.0466 30.0829 53.1352 30.0352 53.2193C29.9889 53.3007 29.9358 53.3786 29.8757 53.4516C29.8186 53.521 29.7557 53.5853 29.6883 53.6445C29.6196 53.7048 29.5454 53.7601 29.4677 53.8095C29.3889 53.8598 29.3071 53.904 29.2237 53.9417C29.1396 53.9795 29.0521 54.0119 28.9618 54.0383C28.8612 54.0677 28.7633 54.0878 28.6656 54.1027C28.5685 54.1172 28.4706 54.127 28.3711 54.1355L28.3369 54.1383L28.3197 54.1755L28.3155 54.183L28.2903 54.2345C28.2471 54.3226 28.2025 54.4095 28.1562 54.4944C28.1084 54.5821 28.0591 54.667 28.0083 54.7481C27.9436 54.8513 27.8727 54.9553 27.7942 55.055C27.7152 55.1554 27.6301 55.2506 27.5382 55.3352C27.444 55.4217 27.3434 55.4967 27.2363 55.561C27.1278 55.6263 27.0121 55.6809 26.8901 55.725C26.7746 55.7667 26.6569 55.7981 26.5376 55.8213C26.4192 55.8441 26.2994 55.8591 26.1797 55.8681C26.0604 55.877 25.9378 55.8805 25.8138 55.8783C25.6891 55.8762 25.5658 55.8684 25.445 55.8556C25.3346 55.8435 25.2217 55.827 25.1099 55.8036C24.9967 55.7802 24.8853 55.7504 24.7799 55.7128C24.6896 55.6803 24.6074 55.6442 24.5303 55.6033C24.4916 55.5827 24.4541 55.5608 24.4169 55.5374C24.3849 55.62 24.3505 55.7015 24.3128 55.7818C24.2568 55.9008 24.1935 56.0171 24.1196 56.1294C24.0589 56.2215 23.993 56.3077 23.9228 56.3875C23.8516 56.468 23.7741 56.544 23.6908 56.6153C23.6043 56.6892 23.513 56.7565 23.4179 56.817C23.3196 56.8801 23.2164 56.9366 23.1102 56.9868C22.9904 57.0433 22.8654 57.0925 22.7377 57.1337C22.6111 57.1741 22.4816 57.2068 22.351 57.2304C22.2235 57.2535 22.0933 57.2681 21.963 57.2726C21.8398 57.2768 21.7158 57.2718 21.5928 57.256C21.4695 57.2404 21.3483 57.2138 21.2302 57.1792C21.103 57.1417 20.979 57.0946 20.8595 57.0408C20.7681 56.9996 20.6789 56.9544 20.5915 56.9057C20.5025 56.8557 20.4141 56.8012 20.3273 56.7429C20.2245 56.6739 20.1377 56.6088 20.0574 56.5382C19.9767 56.4672 19.9012 56.3893 19.8217 56.2959L19.8197 56.2931C19.7533 56.2148 19.7218 56.1173 19.7253 56.0209C19.7289 55.9235 19.7681 55.8267 19.8424 55.7527C19.8441 55.7504 19.8461 55.7487 19.8481 55.7469C19.9256 55.6725 20.0258 55.6353 20.1254 55.6353C20.2277 55.6353 20.3301 55.6746 20.4084 55.7524C20.4091 55.7524 20.4237 55.7688 20.4244 55.7693L20.431 55.7773C20.4863 55.8423 20.5359 55.8938 20.589 55.9403C20.6426 55.9874 20.7012 56.0309 20.7737 56.0794C20.8398 56.1238 20.9093 56.1666 20.9814 56.207C21.0493 56.2452 21.1185 56.2803 21.1888 56.312C21.27 56.3487 21.3538 56.381 21.4383 56.4069C21.5228 56.4327 21.6089 56.4526 21.6944 56.4634C21.7754 56.4739 21.8582 56.4767 21.9409 56.4737C22.031 56.4704 22.1208 56.4599 22.2086 56.444C22.3037 56.427 22.3991 56.4029 22.4929 56.3725C22.5868 56.3424 22.679 56.3059 22.7679 56.264C22.843 56.2286 22.9156 56.1891 22.9837 56.1457C23.0483 56.1045 23.1107 56.0588 23.1701 56.0078C23.2249 55.9612 23.2757 55.9114 23.322 55.8586C23.3691 55.8057 23.4118 55.7496 23.4508 55.6906C23.5223 55.5822 23.5822 55.4639 23.634 55.3412C23.6868 55.2167 23.7314 55.0884 23.7719 54.9616L23.7759 54.9487H23.7756C23.8124 54.8327 23.8501 54.7144 23.954 54.6205C24.0499 54.5341 24.1555 54.5015 24.2609 54.5082C24.3747 54.5153 24.4845 54.5692 24.5782 54.6504L24.6204 54.6885C24.6901 54.7505 24.7545 54.8036 24.8235 54.8485C24.8901 54.892 24.9623 54.9284 25.0496 54.9595C25.1258 54.9867 25.2053 55.0078 25.2845 55.0236C25.3653 55.0399 25.4489 55.0519 25.5308 55.0607C25.6295 55.0712 25.7285 55.0775 25.8264 55.0793C25.9225 55.0809 26.0209 55.0781 26.1195 55.0708C26.2055 55.0643 26.2911 55.054 26.3744 55.0384C26.4574 55.0228 26.5389 55.0017 26.6174 54.9733C26.6885 54.9477 26.7557 54.9163 26.8186 54.879C26.881 54.8418 26.9401 54.798 26.9957 54.7471C27.0594 54.6885 27.1187 54.6209 27.1739 54.5494C27.2294 54.4776 27.2815 54.4005 27.329 54.3247C27.3746 54.2518 27.4166 54.1795 27.4556 54.1079C27.4935 54.0386 27.5321 53.963 27.5708 53.8836L27.5998 53.8243C27.6591 53.7031 27.7094 53.6036 27.7874 53.5225C27.8694 53.4371 27.9738 53.3806 28.1341 53.3562C28.1864 53.3484 28.2387 53.3439 28.2903 53.3396L28.3039 53.3383C28.3798 53.332 28.4551 53.3251 28.5266 53.315C28.5987 53.3047 28.6694 53.2909 28.7378 53.271C28.7894 53.256 28.8415 53.2367 28.8931 53.2135C28.9439 53.1907 28.9922 53.1646 29.0373 53.1359C29.0792 53.1091 29.12 53.0789 29.1582 53.0458C29.1939 53.0147 29.2274 52.9807 29.2571 52.9443C29.288 52.9067 29.316 52.8655 29.3406 52.8215C29.3675 52.7738 29.3901 52.7246 29.4088 52.6748C29.4317 52.614 29.4498 52.5498 29.4643 52.4837C29.479 52.4164 29.4893 52.3496 29.4961 52.2838C29.5041 52.2072 29.5082 52.1281 29.5082 52.0475H29.5084C29.5084 51.9668 29.5043 51.8857 29.4964 51.8052C29.4883 51.7265 29.4767 51.6482 29.4609 51.5708C29.4461 51.497 29.4269 51.4236 29.404 51.352C29.3816 51.2827 29.3547 51.2139 29.3237 51.1466L29.3215 51.1416C29.2918 51.0773 29.2581 51.0145 29.2206 50.9542C29.1836 50.8947 29.1429 50.8367 29.0981 50.7814C29.055 50.7282 29.0086 50.6774 28.9587 50.6303C28.9144 50.5883 28.8676 50.5491 28.8199 50.5132C28.7725 50.4778 28.7212 50.4439 28.6669 50.4123C28.6206 50.3854 28.5703 50.359 28.519 50.3369C28.4755 50.3181 28.4319 50.3025 28.3906 50.2925L28.3864 50.2912C28.3627 50.2857 28.3389 50.2822 28.3145 50.2794C28.2868 50.2764 28.2589 50.2749 28.2305 50.2733C28.1489 50.2691 28.0734 50.2618 28.0002 50.241C27.9223 50.2191 27.8488 50.1827 27.7776 50.1209C27.6583 50.0175 27.5987 49.8836 27.5404 49.7525L27.5384 49.7482C27.5227 49.7131 27.5067 49.6774 27.485 49.6332C27.4674 49.597 27.4485 49.5616 27.4277 49.5275C27.401 49.4843 27.3713 49.4436 27.3392 49.4056C27.3052 49.3652 27.2674 49.327 27.2276 49.2911C27.1842 49.252 27.1384 49.2163 27.0913 49.1839C27.0418 49.1498 26.9892 49.1184 26.9346 49.0897C26.8659 49.0535 26.7927 49.0214 26.717 48.9933C26.6364 48.9637 26.556 48.9393 26.4768 48.9202C26.3945 48.9004 26.3094 48.8848 26.2224 48.8742C26.1346 48.8632 26.0481 48.8574 25.9638 48.8566C25.8692 48.8559 25.7728 48.8609 25.676 48.8712C25.5782 48.8817 25.4795 48.8981 25.3819 48.9194C25.2876 48.94 25.1935 48.9656 25.1019 48.9968C25.0169 49.0257 24.9328 49.0598 24.8516 49.0992L24.8443 49.1026C24.7733 49.1377 24.7045 49.1779 24.6375 49.2219L24.6319 49.2253C24.5656 49.2692 24.5005 49.318 24.4363 49.3702C24.3009 49.4813 24.1762 49.6018 24.0519 49.7221L24.0478 49.7261C23.9686 49.8027 23.8657 49.8401 23.7635 49.8388C23.6614 49.8374 23.5598 49.7971 23.4831 49.7191L23.476 49.7116C23.4031 49.6334 23.3676 49.5332 23.3689 49.4338C23.3704 49.3318 23.4104 49.2304 23.4889 49.1538L23.4954 49.1475C23.5653 49.0799 23.635 49.0123 23.7042 48.9485C23.7784 48.88 23.8534 48.8135 23.9293 48.7512C23.9675 48.7203 24.0091 48.6879 24.0546 48.6539C24.0873 48.6299 24.1202 48.606 24.154 48.5831C24.2041 48.4053 24.2564 48.2358 24.3208 48.0693C24.3902 47.89 24.4732 47.715 24.5814 47.5379C24.6566 47.4153 24.7404 47.2966 24.8314 47.1837C24.9225 47.071 25.0212 46.964 25.1253 46.8645L25.1602 46.8319L25.1593 46.8307C25.1434 46.806 25.1273 46.7819 25.1112 46.7589C25.08 46.7136 25.0463 46.6676 25.0104 46.6232C24.9754 46.5802 24.9386 46.5388 24.9001 46.5019C24.8401 46.4441 24.7751 46.3899 24.7074 46.3394C24.6355 46.2859 24.5598 46.2364 24.4828 46.1917C24.4021 46.1447 24.3203 46.1028 24.238 46.0664C24.154 46.029 24.0675 45.9963 23.9794 45.9682C23.8677 45.9325 23.7503 45.9034 23.6302 45.8798C23.5102 45.8562 23.39 45.8383 23.271 45.8253C23.1336 45.81 22.9962 45.8005 22.8601 45.7964C22.7221 45.7924 22.5832 45.7939 22.4449 45.801C22.3238 45.8069 22.2015 45.8175 22.0798 45.8341C21.9593 45.8507 21.8398 45.8733 21.7236 45.9037C21.6383 45.926 21.552 45.9531 21.4685 45.9871C21.387 46.0197 21.308 46.0589 21.2351 46.1056C21.1309 46.1719 21.0401 46.2548 20.9578 46.3469C20.8924 46.4203 20.8325 46.4994 20.7759 46.5808C21.0093 46.7872 21.2238 47.0278 21.427 47.2559L21.4949 47.3325C21.5671 47.4143 21.5995 47.5178 21.5937 47.619C21.5879 47.72 21.5442 47.8187 21.4639 47.8918L21.4567 47.8982C21.3752 47.9691 21.2723 48.0008 21.1722 47.9958C21.0715 47.9905 20.9734 47.9478 20.9017 47.8694C20.871 47.8355 20.8385 47.8005 20.8094 47.7657C20.6079 47.5386 20.39 47.2943 20.1638 47.1097C20.1206 47.0746 20.0761 47.0414 20.0295 47.0115C19.9832 46.9816 19.9356 46.9553 19.8864 46.9326C19.8321 46.908 19.7744 46.8872 19.7148 46.8693C19.6542 46.8513 19.5928 46.8365 19.5317 46.8231C19.436 46.8028 19.3402 46.7864 19.2454 46.7739C19.1453 46.7606 19.0437 46.751 18.9413 46.7447C18.835 46.7384 18.7302 46.7357 18.627 46.7365C18.5239 46.7375 18.4177 46.742 18.3095 46.7503C18.1701 46.7608 18.0318 46.7769 17.896 46.799C17.7636 46.8204 17.63 46.8479 17.4965 46.8819C17.3787 46.9118 17.2622 46.9464 17.149 46.9867C17.0353 47.0268 16.9242 47.073 16.8175 47.126C16.7105 47.1787 16.6075 47.2388 16.5111 47.3061C16.42 47.3697 16.3335 47.4402 16.2537 47.5183C16.179 47.5917 16.1114 47.6702 16.0524 47.7531C15.9949 47.8343 15.9446 47.9209 15.9026 48.013C15.7169 48.4184 15.6794 48.9582 15.6476 49.418L15.6424 49.4913C15.6348 49.6003 15.5832 49.6967 15.5063 49.7638C15.4295 49.8311 15.3273 49.8693 15.2183 49.8625L15.2118 49.8623C15.1039 49.8537 15.0087 49.8024 14.9421 49.7266C14.8749 49.6498 14.8365 49.5478 14.8433 49.4391L14.8453 49.4096C14.8644 49.1374 14.884 48.8602 14.9245 48.5866L14.908 48.5874C14.8633 48.59 14.8189 48.5934 14.7747 48.5979C14.7114 48.6045 14.6464 48.6138 14.5798 48.6256C14.5138 48.6374 14.4487 48.6512 14.3846 48.6673C14.2922 48.6904 14.2021 48.717 14.1154 48.7469C14.0279 48.7771 13.9408 48.8114 13.8553 48.8497C13.78 48.8833 13.7061 48.9199 13.6356 48.9596C13.5658 48.9991 13.4971 49.0427 13.4309 49.091C13.3635 49.1402 13.3008 49.1934 13.2429 49.2507C13.1846 49.3085 13.1309 49.3708 13.0813 49.4373C13.0246 49.5136 12.9744 49.5943 12.9298 49.6777C12.8846 49.762 12.8447 49.8497 12.8092 49.9386C12.7627 50.0554 12.7221 50.1774 12.6896 50.3015C12.659 50.4187 12.6355 50.5386 12.6211 50.6586C12.6094 50.7548 12.6028 50.8535 12.6048 50.9497C12.6069 51.0449 12.6173 51.1396 12.6396 51.23L12.6409 51.2353C12.7393 51.6289 13.0664 51.9847 13.3461 52.2888L13.3762 52.3215L13.3817 52.3282C13.4525 52.4086 13.4852 52.5098 13.4809 52.6093C13.4764 52.7115 13.433 52.812 13.3518 52.8863L13.3451 52.8921C13.2645 52.9627 13.1632 52.9954 13.0637 52.9907C12.9615 52.9865 12.8607 52.9431 12.7861 52.8617C12.6474 52.7105 12.5077 52.5581 12.3811 52.4004C12.2785 52.2725 12.1829 52.1397 12.1002 51.9987C12.0597 52.0402 12.0206 52.0826 11.983 52.1271C11.9182 52.2035 11.8577 52.2853 11.8025 52.3752C11.7503 52.4604 11.7036 52.5503 11.6626 52.6422C11.6196 52.7386 11.5824 52.8386 11.5514 52.9388C11.5208 53.0377 11.4956 53.1392 11.4773 53.2404C11.4601 53.3364 11.4487 53.4333 11.4447 53.5297C11.441 53.6162 11.4435 53.7043 11.4514 53.7934C11.4594 53.8857 11.4733 53.9765 11.4919 54.065C11.5116 54.1579 11.5368 54.2503 11.5674 54.3407C11.5972 54.4289 11.6328 54.5168 11.6736 54.6024L11.6759 54.6077C11.7045 54.6672 11.7351 54.7244 11.768 54.7787C11.8024 54.8347 11.8399 54.8892 11.8811 54.941C11.9146 54.9831 11.95 55.0231 11.9869 55.0605C12.0235 55.0974 12.063 55.1333 12.105 55.1683C12.1418 55.1986 12.1785 55.2267 12.215 55.2526L12.2369 55.2682C12.2494 55.242 12.2623 55.2162 12.2755 55.1901C12.3212 55.1015 12.3698 55.0176 12.4203 54.9382C12.4711 54.8584 12.5259 54.779 12.5836 54.7006C12.6373 54.6275 12.6924 54.5564 12.7482 54.4863C12.8103 54.4086 12.8638 54.3432 12.9168 54.2785L12.9228 54.2719C12.9924 54.1908 13.0881 54.1441 13.1874 54.1342C13.2895 54.1242 13.3953 54.1526 13.4805 54.2224L13.4873 54.2284C13.5685 54.2978 13.6152 54.3934 13.6251 54.4924C13.6352 54.5944 13.6066 54.7001 13.5368 54.785L13.531 54.792C13.4271 54.9191 13.3228 55.0461 13.2293 55.1733C13.1834 55.2361 13.1397 55.2986 13.1001 55.3604C13.0597 55.4236 13.0219 55.4885 12.9878 55.5547C12.9546 55.6193 12.9241 55.6876 12.8967 55.7592C12.8699 55.8293 12.8473 55.8993 12.8292 55.9689C12.8117 56.0359 12.7978 56.105 12.7882 56.1748C12.7789 56.2424 12.7736 56.3094 12.7728 56.3755C12.7721 56.4446 12.7762 56.5139 12.7855 56.5827C12.7945 56.6497 12.8085 56.7158 12.8276 56.7806C12.847 56.8466 12.8713 56.9099 12.8997 56.9707C12.9293 57.034 12.9638 57.095 13.0024 57.1535C13.0473 57.2214 13.0987 57.2874 13.1553 57.351C13.215 57.4178 13.2789 57.4798 13.3452 57.5371C13.417 57.5988 13.493 57.6561 13.5721 57.7089C13.6537 57.7633 13.739 57.8131 13.8269 57.8583C13.9259 57.909 14.0295 57.9547 14.1354 57.9944C14.2409 58.0341 14.3493 58.0679 14.4583 58.0953C14.5546 58.1193 14.6558 58.1393 14.7574 58.1516C14.8462 58.1621 14.9345 58.1666 15.0189 58.1629C15.0949 58.1597 15.1678 58.1489 15.2391 58.1318C15.3102 58.1149 15.3812 58.0911 15.4531 58.0612C15.5005 58.0414 15.5468 58.0198 15.5921 57.9969C15.6199 57.9831 15.6483 57.9681 15.6771 57.9525L15.676 57.9171C15.6749 57.8763 15.6743 57.844 15.6743 57.8198C15.6743 57.7214 15.6789 57.6197 15.6885 57.5157C15.6958 57.4371 15.7058 57.36 15.7188 57.2847C15.5682 57.1717 15.4143 57.0536 15.2693 56.9313C15.105 56.7929 14.9494 56.6467 14.817 56.4918C14.7459 56.4084 14.6812 56.3215 14.624 56.2301C14.5669 56.1389 14.5167 56.0425 14.4745 55.9401C14.4359 55.8464 14.4053 55.7509 14.3818 55.6537C14.3584 55.5568 14.3418 55.4586 14.3307 55.3591C14.3194 55.2562 14.314 55.1509 14.3146 55.0447C14.3152 54.9379 14.3217 54.8327 14.334 54.7307C14.3465 54.6283 14.365 54.5258 14.3901 54.4243C14.4144 54.3261 14.4446 54.2297 14.4813 54.1357L14.4834 54.131C14.5203 54.037 14.5637 53.9457 14.6121 53.8567C14.6614 53.7661 14.7153 53.6791 14.7721 53.596C14.8186 53.5283 14.8691 53.46 14.9231 53.3919C14.9759 53.3253 15.0305 53.2607 15.0866 53.1982L15.1386 53.1409L15.2046 53.0704C15.2271 53.0468 15.2655 53.0063 15.2878 52.9795C15.2785 52.9428 15.2589 52.8866 15.2472 52.8529L15.2388 52.8288C15.2245 52.7869 15.2105 52.7449 15.1975 52.704C15.1842 52.6618 15.1713 52.6178 15.1591 52.5707C15.1382 52.4902 15.1219 52.4089 15.1109 52.3273C15.1004 52.2494 15.0945 52.17 15.0942 52.0897C15.0939 51.9927 15.1016 51.8971 15.1178 51.8039C15.1338 51.7121 15.1583 51.6208 15.1917 51.5311C15.2263 51.4382 15.2699 51.3486 15.3202 51.2631C15.3741 51.1717 15.4355 51.0849 15.5015 51.0042C15.569 50.9213 15.6423 50.8432 15.7199 50.7703C15.8003 50.6948 15.8855 50.6245 15.9738 50.5597C16.0615 50.4957 16.1531 50.4361 16.2472 50.3823C16.3398 50.3292 16.4373 50.2804 16.5383 50.2367C16.6349 50.1948 16.7367 50.1568 16.8399 50.1277C16.9321 50.1016 17.0268 50.082 17.1211 50.0724C17.2024 50.0639 17.2778 50.0634 17.3511 50.0687C17.3946 50.0719 17.4378 50.0772 17.4814 50.0845L17.4874 50.0662C17.5107 49.9979 17.539 49.932 17.573 49.8686C17.6067 49.8055 17.6462 49.7453 17.6922 49.6872C17.7521 49.6116 17.8197 49.544 17.8929 49.4835C17.9661 49.4228 18.0437 49.3692 18.1234 49.3217C18.2285 49.2595 18.3415 49.204 18.4577 49.1557C18.5805 49.1048 18.7075 49.0619 18.8328 49.0272C18.9556 48.9935 19.0821 48.9664 19.2091 48.9488C19.3272 48.9325 19.4467 48.9244 19.5657 48.9268C19.696 48.929 19.8232 48.944 19.948 48.9696C20.0717 48.9948 20.1938 49.0302 20.3143 49.0734C20.4237 49.1126 20.5281 49.1562 20.6295 49.2024C20.7248 49.2457 20.8287 49.2961 20.9329 49.3471C21.0322 49.3956 21.1025 49.48 21.1357 49.5767C21.1678 49.6701 21.1651 49.7754 21.1211 49.872C21.1185 49.8786 21.1156 49.8849 21.1117 49.8908C21.0625 49.985 20.9804 50.0521 20.8864 50.0843C20.793 50.1162 20.6874 50.1136 20.5908 50.0695C20.5845 50.0671 20.5784 50.0644 20.5729 50.0609L20.5644 50.0566C20.3933 49.9732 20.2207 49.8886 20.0438 49.8253C19.9638 49.7967 19.8824 49.7723 19.7993 49.755C19.7173 49.7377 19.6348 49.7271 19.5515 49.7256C19.4736 49.7242 19.3925 49.7301 19.3118 49.7417C19.2212 49.7545 19.1317 49.7741 19.0461 49.7977C18.9548 49.8229 18.8607 49.8544 18.7697 49.8919C18.6874 49.9261 18.6066 49.9652 18.5322 50.0094L18.5257 50.013C18.4884 50.0352 18.4509 50.0607 18.4152 50.0893C18.3793 50.118 18.3465 50.1491 18.3198 50.1827C18.3032 50.2038 18.2891 50.2257 18.2771 50.2485C18.2653 50.2714 18.2549 50.2962 18.2454 50.3241C18.2335 50.359 18.2245 50.3912 18.2159 50.4231L18.2132 50.4329C18.1845 50.5366 18.1495 50.6368 18.0901 50.7217C18.0237 50.8161 17.9314 50.8874 17.7933 50.9173C17.7317 50.9306 17.6738 50.9313 17.6167 50.9251C17.5628 50.9196 17.5133 50.9083 17.4622 50.8962L17.4617 50.8959C17.4127 50.8844 17.3677 50.8746 17.3277 50.8693C17.2877 50.8643 17.2472 50.8631 17.2029 50.8676C17.1475 50.8732 17.0884 50.8869 17.03 50.9047C16.9689 50.9236 16.9098 50.9464 16.8562 50.9696C16.785 51.0007 16.7144 51.0361 16.6457 51.0755C16.578 51.1142 16.5113 51.1577 16.4474 51.2047C16.3858 51.2496 16.3264 51.2983 16.2708 51.3505C16.2175 51.4006 16.1674 51.4535 16.1222 51.509C16.0829 51.5569 16.0456 51.6087 16.0135 51.6627L16.0105 51.6672C15.9837 51.7129 15.9603 51.7604 15.942 51.8094C15.9262 51.852 15.9145 51.8966 15.9066 51.9425C15.8983 51.991 15.8945 52.0394 15.8947 52.0877C15.8948 52.1334 15.8987 52.1806 15.9056 52.2288C15.9125 52.2772 15.9223 52.3247 15.9341 52.3704L15.9351 52.3747C15.9436 52.4071 15.9534 52.4398 15.9639 52.4727C15.9711 52.4953 15.9849 52.5359 15.9987 52.5764L16.0008 52.5826C16.0527 52.7354 16.1064 52.8928 16.0914 53.0661C16.0806 53.1923 16.0376 53.2957 15.9769 53.3891C15.9205 53.4758 15.8494 53.5518 15.7756 53.6307L15.7287 53.6809L15.7289 53.6812L15.6828 53.7314C15.6394 53.7796 15.5959 53.8311 15.5525 53.8857L15.5483 53.8907C15.5095 53.9399 15.4712 53.9919 15.4335 54.0468C15.3927 54.1064 15.354 54.1684 15.3188 54.2325C15.2843 54.2955 15.2532 54.3603 15.2274 54.4266C15.203 54.4889 15.1829 54.5532 15.167 54.618C15.1503 54.686 15.1378 54.7556 15.1293 54.8262C15.1202 54.9015 15.1154 54.9761 15.115 55.049C15.1146 55.1228 15.1186 55.1976 15.1268 55.2728C15.1337 55.3352 15.1439 55.3975 15.1586 55.4593C15.173 55.5201 15.1914 55.5791 15.2148 55.6361C15.2401 55.6974 15.271 55.7556 15.3063 55.8116C15.3417 55.8677 15.382 55.9212 15.4261 55.9726C15.5139 56.0756 15.6182 56.1763 15.7299 56.2735C15.8129 56.3458 15.9013 56.4174 15.9906 56.487L16.023 56.427C16.0545 56.3704 16.0869 56.3165 16.1203 56.2642C16.1566 56.2075 16.1953 56.1515 16.2369 56.097C16.2783 56.0425 16.3234 55.9895 16.3724 55.9395C16.4238 55.8873 16.4781 55.8396 16.5359 55.7971C16.5938 55.7549 16.656 55.7173 16.7229 55.6843C16.7915 55.6509 16.8602 55.6246 16.9289 55.603C16.9656 55.5914 17.0037 55.5806 17.0426 55.5708C17.0361 55.5362 17.0295 55.5007 17.0237 55.4645C17.0127 55.3972 17.0034 55.3295 16.9966 55.2612C16.9845 55.1436 16.9787 55.0248 16.981 54.9053C16.983 54.7911 16.9921 54.678 17.0089 54.5683C17.0268 54.4512 17.054 54.3344 17.0882 54.2197C17.1242 54.0993 17.1687 53.9798 17.2192 53.8628C17.2711 53.7437 17.3294 53.627 17.3933 53.5147C17.458 53.4014 17.5281 53.2924 17.6028 53.1894C17.67 53.0973 17.7433 53.0076 17.8225 52.921C17.899 52.8373 17.9795 52.7587 18.0645 52.6859C18.146 52.6156 18.2318 52.5503 18.3214 52.4897C18.4122 52.4282 18.5044 52.3727 18.5976 52.3235C18.6879 52.2756 18.7832 52.2308 18.8824 52.1899C18.98 52.1497 19.0791 52.114 19.179 52.0834C19.2786 52.053 19.3799 52.0269 19.4813 52.0068C19.577 51.9879 19.6741 51.9742 19.7711 51.9668C19.8642 51.9596 19.958 51.9586 20.0516 51.9644C20.1425 51.9702 20.2323 51.9821 20.3211 52.0016C20.4028 52.0191 20.4841 52.0433 20.5641 52.0731C20.6444 52.1032 20.7226 52.1391 20.7985 52.1801C20.8629 52.2152 20.9231 52.2519 20.9797 52.2904C21.0026 52.3057 21.0253 52.3215 21.0482 52.3378C21.0599 52.3125 21.072 52.2873 21.0841 52.2627C21.114 52.2019 21.1462 52.1415 21.1802 52.0816C21.2456 51.9666 21.3188 51.8546 21.4004 51.7491C21.4765 51.6509 21.5598 51.5585 21.6506 51.4743C21.7445 51.3872 21.8469 51.3093 21.9545 51.2396C22.0698 51.1652 22.1905 51.1007 22.3135 51.0451C22.44 50.9884 22.5724 50.9394 22.708 50.8983C22.8486 50.8555 22.992 50.8219 23.1357 50.796C23.2625 50.7734 23.3884 50.7568 23.5132 50.7468C23.6373 50.7367 23.764 50.7325 23.8924 50.7344C24.0194 50.7362 24.1454 50.7443 24.2689 50.7586C24.3892 50.7727 24.5095 50.7927 24.6277 50.8199C24.7298 50.8432 24.8302 50.8716 24.9278 50.905C25.0231 50.9376 25.1175 50.9759 25.2104 51.0198C25.3012 51.0627 25.39 51.1115 25.4758 51.1652C25.5587 51.2172 25.639 51.2747 25.7153 51.3372C25.8408 51.4402 25.9452 51.5487 26.0405 51.6637C26.1339 51.776 26.2197 51.8966 26.3087 52.0249C26.3329 52.0598 26.3512 52.0982 26.3632 52.1386C26.3751 52.1788 26.3806 52.221 26.3797 52.2635C26.3774 52.3371 26.355 52.4074 26.3168 52.4674L26.3165 52.4677C26.2782 52.5277 26.2239 52.5774 26.1573 52.6103C26.0836 52.647 26.002 52.6591 25.9241 52.648C25.8458 52.6372 25.7706 52.603 25.7097 52.5478L25.6977 52.5367C25.6933 52.533 25.6896 52.5287 25.6861 52.5245L25.6667 52.5021L25.6596 52.4933L25.6503 52.4797C25.5822 52.3815 25.5158 52.2861 25.4431 52.1964C25.3726 52.1095 25.2963 52.0278 25.2071 51.9548C25.157 51.9137 25.1036 51.8754 25.0476 51.8406C24.9899 51.8044 24.9298 51.7717 24.8677 51.7424C24.8025 51.7117 24.7351 51.6843 24.6664 51.6609H24.6662C24.594 51.6363 24.5213 51.6157 24.4489 51.5991C24.359 51.5786 24.267 51.5632 24.1739 51.5524C24.0748 51.5412 23.9769 51.5349 23.8811 51.5334C23.7819 51.5321 23.6805 51.5354 23.5776 51.5439C23.4747 51.5522 23.3744 51.5653 23.277 51.5827C23.1671 51.6022 23.0554 51.6286 22.944 51.6622C22.8403 51.6936 22.7392 51.7308 22.6428 51.7742C22.5576 51.8124 22.4737 51.8566 22.395 51.9071C22.3231 51.9533 22.2557 52.0043 22.1951 52.06C22.1322 52.1188 22.0743 52.1843 22.0214 52.2545C21.9676 52.3258 21.9195 52.4005 21.8763 52.4765C21.8403 52.5398 21.8069 52.6043 21.7766 52.6694C21.7458 52.7351 21.7168 52.8037 21.6901 52.8743L21.6521 52.9749C21.6247 53.048 21.5971 53.1214 21.5432 53.1897L21.5422 53.191C21.4504 53.306 21.3359 53.3562 21.2169 53.357C21.1057 53.3575 20.9935 53.313 20.8956 53.2374C20.8904 53.2341 20.8858 53.2304 20.8816 53.2264C20.8537 53.2042 20.8355 53.1889 20.8177 53.1741L20.8098 53.1673C20.7473 53.1153 20.6834 53.0629 20.6162 53.0126C20.5505 52.964 20.4839 52.9189 20.4159 52.882C20.3744 52.8597 20.3314 52.8399 20.2869 52.823C20.2433 52.8067 20.1983 52.7932 20.1515 52.7831C20.099 52.7716 20.0461 52.7647 19.9938 52.762C19.941 52.759 19.8869 52.76 19.8321 52.7642C19.7661 52.7693 19.6987 52.779 19.6315 52.7924C19.5563 52.8075 19.4833 52.8263 19.4139 52.8476C19.3375 52.871 19.262 52.8981 19.1883 52.9285C19.1169 52.9579 19.0448 52.9918 18.9732 53.03C18.9037 53.0669 18.8366 53.1068 18.7724 53.15C18.7073 53.1939 18.6454 53.2409 18.5873 53.2909C18.5246 53.3449 18.4652 53.4032 18.4089 53.465C18.353 53.5265 18.3004 53.5912 18.2512 53.6591C18.1923 53.7402 18.138 53.8243 18.0889 53.9105C18.0386 53.9989 17.9933 54.0893 17.9538 54.18C17.9176 54.2636 17.8849 54.3516 17.8574 54.4424C17.8331 54.5235 17.8137 54.6061 17.8008 54.6893C17.7883 54.7711 17.782 54.8526 17.781 54.9326C17.7802 55.0142 17.7845 55.0971 17.7931 55.1796C17.7994 55.2416 17.8084 55.3048 17.82 55.3699C17.831 55.4327 17.8444 55.4957 17.8595 55.559L17.8876 55.678L17.8892 55.6864C17.9211 55.8366 17.9076 55.9666 17.8458 56.0706C17.7823 56.1779 17.6715 56.2524 17.5118 56.2878C17.4764 56.2959 17.4517 56.3007 17.427 56.3052L17.4177 56.3072C17.3035 56.329 17.1719 56.3546 17.0745 56.4023C17.0514 56.4137 17.0288 56.4277 17.0066 56.444C16.9842 56.4609 16.9636 56.4792 16.9442 56.4989C16.9163 56.5274 16.8905 56.5586 16.8663 56.591C16.8408 56.6246 16.8173 56.66 16.7946 56.695V56.6952C16.7649 56.742 16.7365 56.7896 16.7103 56.8381C16.6839 56.8874 16.6594 56.9368 16.6376 56.9868C16.6117 57.0461 16.5893 57.1055 16.5702 57.1654C16.551 57.2248 16.5347 57.2866 16.5214 57.3499C16.5057 57.4248 16.4942 57.5006 16.4869 57.5767C16.4791 57.6553 16.4756 57.7369 16.4756 57.8198C16.4756 57.9075 16.4793 57.9926 16.4872 58.0745C16.4952 58.1599 16.5073 58.2455 16.5231 58.331C16.5402 58.4218 16.5619 58.5128 16.5891 58.6032C16.6162 58.6929 16.6481 58.78 16.6857 58.8642C16.7264 58.9561 16.7737 59.044 16.827 59.1273C16.8802 59.2105 16.94 59.29 17.0059 59.3654C17.0834 59.4541 17.1695 59.5372 17.2608 59.6131C17.3538 59.6904 17.4539 59.7612 17.5583 59.8242C17.658 59.8841 17.7626 59.937 17.8708 59.981C17.9729 60.0222 18.0781 60.0553 18.1845 60.0779C18.2964 60.1017 18.4101 60.1143 18.5231 60.1161C18.6381 60.1178 18.7543 60.1083 18.8698 60.0879C18.9865 60.0676 19.1007 60.0362 19.2104 59.995C19.3219 59.9531 19.4288 59.9013 19.5294 59.8406C19.9646 59.5769 20.3386 59.1113 20.6655 58.7046L20.7126 58.6459C20.7814 58.5605 20.8793 58.5105 20.9809 58.4997C21.0828 58.4884 21.1888 58.5163 21.2751 58.5853L21.2755 58.5856C21.361 58.6547 21.4109 58.7521 21.422 58.8539C21.433 58.9553 21.4054 59.0613 21.3362 59.1472L21.3193 59.1683C21.0693 59.4792 20.8098 59.8015 20.5141 60.0814ZM34.2435 51.66C34.3043 51.6881 34.364 51.719 34.4218 51.7529C34.4998 51.7981 34.5747 51.8488 34.6462 51.9043C34.7328 51.9716 34.8145 52.0462 34.891 52.1268C34.971 52.2112 35.0445 52.3007 35.1109 52.3931C35.178 52.4865 35.2399 52.586 35.2965 52.69C35.3533 52.7946 35.4042 52.9034 35.4483 53.0142C35.5896 53.3687 35.6935 53.7347 35.7376 54.1059C35.7821 54.4796 35.7662 54.8595 35.6676 55.2391C35.5884 55.5432 35.4628 55.823 35.3043 56.0827C35.1546 56.3281 34.9758 56.5556 34.779 56.7693L34.7866 56.8444C34.7903 56.8878 34.7936 56.9283 34.7959 56.965C34.805 57.1108 34.8062 57.2591 34.7974 57.4067C34.7897 57.5426 34.7728 57.679 34.7456 57.8136C34.7189 57.9441 34.6827 58.0725 34.6344 58.1948C34.5886 58.3104 34.5325 58.4216 34.4641 58.5258C34.3906 58.6375 34.3046 58.7391 34.2087 58.8307C34.1086 58.9262 33.9979 59.0105 33.88 59.0839C33.8042 59.1311 33.7265 59.1733 33.647 59.211C33.5793 59.2433 33.5101 59.2725 33.4399 59.2992C33.4178 59.3742 33.3917 59.4496 33.3617 59.5244C33.3237 59.6199 33.2807 59.7118 33.2344 59.7994C33.1788 59.9042 33.1169 60.0061 33.0498 60.1043C32.9886 60.1935 32.9224 60.2801 32.852 60.3632C32.8316 60.8251 32.7645 61.2924 32.6136 61.7262C32.4573 62.1753 32.2116 62.5874 31.836 62.9199C31.4495 63.2622 30.9816 63.4687 30.4867 63.5882C29.9977 63.7065 29.4827 63.7394 28.9957 63.7342C28.812 63.7321 28.6299 63.7208 28.4503 63.701C28.3064 63.6851 28.1625 63.6635 28.0196 63.6369L28.0216 63.8391C28.0226 63.9607 28.0234 64.0824 28.0239 64.2048C28.0244 64.3266 28.0247 64.4487 28.0244 64.5704C28.0241 64.6993 28.0234 64.8278 28.0207 64.9552C28.0176 65.087 28.0126 65.2166 28.0041 65.3425C27.9952 65.4723 27.9823 65.6027 27.9635 65.7315C27.9444 65.8619 27.9188 65.9915 27.8843 66.1183C27.848 66.2519 27.801 66.3845 27.7411 66.5123C27.6856 66.6301 27.6196 66.7423 27.5419 66.8455C27.4629 66.95 27.3729 67.0435 27.2722 67.1239L27.266 67.1287C27.1694 67.2047 27.0634 67.2685 26.9481 67.3185C26.8302 67.3695 26.7054 67.4049 26.5793 67.4265C26.4458 67.4494 26.3087 67.4571 26.1749 67.4516C26.041 67.446 25.9034 67.427 25.7701 67.3924C25.6451 67.3599 25.524 67.3142 25.4139 67.2535C25.3026 67.1922 25.2063 67.1181 25.1215 67.0324C25.0378 66.9478 24.9656 66.8516 24.9014 66.7454C24.7854 66.5527 24.7027 66.3415 24.6227 66.1371L24.5666 65.9942C24.4682 65.7438 24.3703 65.4972 24.2717 65.2599C24.1718 65.019 24.0677 64.7784 23.956 64.5368C23.8801 64.3723 23.8025 64.2113 23.7233 64.0566C23.6435 63.9014 23.5585 63.7461 23.4667 63.5914C23.3718 63.4322 23.2717 63.2773 23.1651 63.1294C23.0579 62.9801 22.9432 62.8368 22.8204 62.7011C22.6924 62.5598 22.5545 62.4261 22.4107 62.2988C22.2675 62.1719 22.1168 62.0502 21.9625 61.9327C21.7995 61.8081 21.6358 61.6903 21.4723 61.576C21.308 61.4613 21.1422 61.349 20.9767 61.2367C20.7651 61.1445 20.5618 61.0381 20.3641 60.9238C20.1807 60.8178 20.0021 60.7053 19.8252 60.5918C19.7068 60.6555 19.583 60.7108 19.4557 60.7565C19.3093 60.8093 19.1593 60.8492 19.0082 60.8758C18.8447 60.9044 18.6776 60.9178 18.5096 60.915C18.3438 60.9125 18.1787 60.8941 18.0177 60.86C17.867 60.8278 17.7189 60.7816 17.5752 60.7238C17.4255 60.6636 17.2814 60.591 17.145 60.5092C17.0076 60.4263 16.8739 60.3313 16.7473 60.226C16.6235 60.1228 16.5078 60.0109 16.4032 59.8913C16.3111 59.786 16.2275 59.6746 16.1526 59.5573C16.0773 59.4397 16.0112 59.3169 15.9542 59.1891C15.9163 59.1042 15.8826 59.0176 15.8531 58.9299C15.8364 58.8802 15.8209 58.8302 15.8067 58.7797L15.7608 58.7993C15.6474 58.8463 15.5328 58.8842 15.4159 58.9115C15.2993 58.9387 15.1793 58.9558 15.0548 58.9613C14.9283 58.9671 14.8006 58.9613 14.6745 58.9468C14.535 58.931 14.3969 58.9043 14.2638 58.8709C14.1261 58.8365 13.9883 58.7933 13.8531 58.7426C13.7189 58.6924 13.5872 58.6341 13.4608 58.5693L13.4558 58.5665C13.3415 58.5075 13.2306 58.4427 13.1247 58.3719C13.0193 58.3013 12.9179 58.2247 12.8219 58.1418C12.7277 58.0607 12.6379 57.9731 12.5544 57.8791C12.4745 57.7892 12.4004 57.6935 12.3339 57.5925C12.2735 57.5011 12.2199 57.4059 12.1738 57.3072C12.1281 57.2095 12.0898 57.1091 12.0594 57.0064C12.0291 56.9032 12.0067 56.7979 11.9922 56.6914C11.9777 56.5842 11.9712 56.4754 11.9725 56.3662V56.3657C11.9732 56.3042 11.9763 56.2429 11.9818 56.1816C11.9854 56.141 11.9901 56.101 11.9954 56.0623L11.9939 56.0613C11.9798 56.0533 11.96 56.0412 11.9341 56.0251C11.8735 55.9877 11.8154 55.9498 11.7605 55.9109L11.7541 55.9061C11.6971 55.8657 11.6435 55.825 11.5939 55.7841C11.5321 55.7329 11.4724 55.678 11.4149 55.6198C11.3577 55.5618 11.304 55.5012 11.2536 55.4378L11.2493 55.432C11.1901 55.3568 11.1363 55.2792 11.0876 55.1997C11.0368 55.1168 10.9912 55.0319 10.9502 54.946L10.9478 54.9407C10.8952 54.8297 10.8488 54.7144 10.8089 54.5961C10.7682 54.4756 10.7346 54.3527 10.7084 54.2297C10.6824 54.1069 10.6636 53.9834 10.6529 53.8602C10.6425 53.7409 10.6396 53.6194 10.6448 53.4969C10.6504 53.364 10.6654 53.2324 10.6884 53.1038C10.7125 52.9692 10.7457 52.8349 10.7863 52.7035C10.8269 52.5721 10.8758 52.4413 10.9328 52.3139C10.9877 52.1906 11.0501 52.0713 11.1195 51.9581C11.223 51.7893 11.3373 51.6442 11.4619 51.5098C11.574 51.3887 11.6927 51.2787 11.8185 51.1694C11.8088 51.0815 11.8043 50.9925 11.8045 50.9033C11.8047 50.7875 11.8123 50.6737 11.8257 50.5631C11.8442 50.4102 11.8743 50.2561 11.9141 50.1036C11.9549 49.9469 12.0061 49.7924 12.0655 49.6432C12.114 49.522 12.168 49.4039 12.2289 49.2914C12.2905 49.1773 12.3599 49.0669 12.4383 48.9614C12.5119 48.8622 12.5921 48.7695 12.6785 48.6839C12.7654 48.5977 12.8586 48.5184 12.9579 48.4458C13.0442 48.3828 13.1339 48.3252 13.2257 48.273C13.3227 48.2175 13.4243 48.1668 13.5283 48.1202C13.6336 48.0731 13.7427 48.0301 13.8541 47.9917C13.9671 47.9528 14.0796 47.9191 14.1904 47.8915C14.2738 47.8707 14.3576 47.8528 14.4411 47.838C14.5222 47.8237 14.6059 47.8119 14.6921 47.8031C14.7484 47.7971 14.8042 47.7928 14.8596 47.7895C14.9119 47.7865 14.9676 47.7845 15.0257 47.783L15.1313 47.781L15.139 47.7622C15.1501 47.7353 15.1619 47.7081 15.1745 47.6807C15.2372 47.5439 15.312 47.4146 15.3974 47.2937C15.4847 47.1704 15.5837 47.0549 15.6928 46.9482C15.8026 46.8405 15.922 46.7425 16.0485 46.6539C16.1803 46.5617 16.3191 46.4803 16.462 46.4097C16.5961 46.3432 16.7339 46.2857 16.8733 46.2357C17.0134 46.1857 17.1561 46.143 17.299 46.1066C17.4514 46.0679 17.6079 46.0357 17.7671 46.0099C17.9282 45.984 18.0894 45.9649 18.2491 45.9526C18.3701 45.9436 18.4942 45.9386 18.6207 45.9373C18.7452 45.9363 18.8682 45.9396 18.9893 45.9468C19.1098 45.9541 19.2311 45.9657 19.3525 45.9818C19.47 45.9974 19.586 46.0172 19.6989 46.0413C19.78 46.0586 19.86 46.0785 19.9384 46.1018C19.9921 46.1176 20.0451 46.1355 20.098 46.1553C20.1845 46.029 20.2756 45.9079 20.3784 45.7944C20.501 45.6595 20.6386 45.5373 20.8031 45.4323C20.9132 45.3619 21.0308 45.3027 21.1522 45.2525C21.2725 45.2029 21.3968 45.1628 21.5216 45.1304C21.6663 45.0925 21.8134 45.0643 21.9613 45.0437C22.1082 45.0231 22.2569 45.01 22.4051 45.0026C22.5634 44.9945 22.7234 44.993 22.8838 44.9975C23.0443 45.0023 23.2033 45.0134 23.3593 45.0306C23.5052 45.0467 23.6514 45.0686 23.7943 45.097C23.9372 45.1256 24.0805 45.1615 24.2226 45.2069C24.3379 45.2436 24.4516 45.2868 24.5628 45.3363C24.6748 45.3858 24.7827 45.4408 24.8856 45.5006C24.9902 45.5616 25.0923 45.6284 25.1889 45.7005C25.2818 45.7698 25.3713 45.8451 25.4553 45.926C25.5158 45.984 25.5716 46.0455 25.6234 46.1088C25.674 46.1706 25.723 46.2369 25.7701 46.3047L25.8146 46.3708C25.9404 46.3065 26.0717 46.252 26.2065 46.2065C26.3512 46.1579 26.4994 46.1199 26.6483 46.0915C26.8 46.0629 26.9547 46.0441 27.1099 46.035C27.2654 46.0257 27.4209 46.0267 27.5746 46.0375C27.7029 46.0465 27.8314 46.0631 27.96 46.0864C28.0893 46.1101 28.2163 46.1407 28.3403 46.1777C28.4666 46.2154 28.5907 46.2598 28.7114 46.3102C28.8322 46.361 28.9512 46.4182 29.0671 46.482C29.164 46.5353 29.2589 46.5934 29.3511 46.6571C29.4425 46.7201 29.5311 46.7885 29.6153 46.863C29.6978 46.9356 29.7751 47.0129 29.8473 47.0949C29.9197 47.1767 29.9871 47.2629 30.0495 47.3528C30.159 47.5107 30.2551 47.681 30.3426 47.8561C30.4214 48.0133 30.4911 48.1687 30.5575 48.3215L30.603 48.3217C30.6425 48.322 30.6804 48.3229 30.7165 48.3247C30.851 48.3303 30.9836 48.3433 31.1132 48.3629C31.2458 48.383 31.3791 48.4106 31.5122 48.445C31.6467 48.4799 31.7783 48.5211 31.9063 48.5681C32.0361 48.6156 32.1655 48.67 32.2935 48.7313C32.4193 48.7911 32.5436 48.8577 32.6651 48.9297L32.6654 48.9295C32.7836 48.9998 32.9003 49.0764 33.0143 49.1593C33.1247 49.2399 33.2316 49.3251 33.3312 49.4147C33.4254 49.4988 33.5154 49.589 33.5999 49.6849C33.6757 49.7711 33.7463 49.862 33.811 49.9575C33.8744 50.0508 33.932 50.1486 33.9829 50.2498C34.0344 50.3522 34.0784 50.4564 34.1146 50.5615C34.1511 50.6669 34.1803 50.7754 34.2022 50.8857C34.2203 50.9778 34.2329 51.0698 34.2409 51.1622C34.2485 51.2515 34.2515 51.3438 34.251 51.4387C34.2505 51.4895 34.2493 51.5379 34.2472 51.5849L34.2435 51.66ZM29.731 48.4322C29.6885 48.3388 29.6445 48.2461 29.5982 48.1569C29.5348 48.0341 29.4661 47.9159 29.3909 47.8074C29.3474 47.7446 29.2998 47.6838 29.2482 47.6253C29.1965 47.5665 29.1421 47.5117 29.0853 47.4615C29.0247 47.4083 28.96 47.3586 28.892 47.3119C28.8241 47.2654 28.7537 47.2224 28.681 47.1828C28.5912 47.1333 28.4979 47.0883 28.4015 47.0479C28.3061 47.0079 28.209 46.973 28.1112 46.9439C28.0128 46.9147 27.9144 46.8909 27.8159 46.8729C27.7185 46.855 27.6188 46.8422 27.518 46.8352C27.3977 46.8266 27.2765 46.8262 27.156 46.8329C27.0352 46.8399 26.9149 46.8548 26.797 46.8771C26.6851 46.8982 26.5741 46.9266 26.4661 46.9627C26.3648 46.9967 26.266 47.0376 26.1713 47.0865C26.127 47.1094 26.0828 47.1345 26.0393 47.1614C25.9947 47.1892 25.952 47.2179 25.9115 47.2475L25.9034 47.2533C25.8632 47.2829 25.8257 47.3126 25.7909 47.3417V47.342C25.7517 47.3749 25.7143 47.4085 25.678 47.4429C25.5987 47.5186 25.524 47.5999 25.4548 47.6853C25.3857 47.7712 25.3218 47.8616 25.2647 47.9547C25.226 48.0183 25.1915 48.0808 25.161 48.1429L25.1573 48.1505L25.2111 48.1381C25.3356 48.1107 25.4634 48.0899 25.593 48.0761C25.7177 48.0628 25.8443 48.0565 25.9709 48.0578C26.0896 48.0587 26.2065 48.0663 26.3205 48.0803C26.435 48.0946 26.5502 48.1155 26.6649 48.1434C26.7774 48.1705 26.8893 48.2044 26.9988 48.2451C27.1052 48.2846 27.2088 48.3305 27.3077 48.3822C27.3902 48.4256 27.4706 48.4741 27.5484 48.5277C27.6241 48.5799 27.6961 48.6364 27.7635 48.6969C27.8299 48.7567 27.8936 48.8223 27.9534 48.893C28.0118 48.9624 28.0644 49.0345 28.1102 49.1086C28.1408 49.1588 28.1693 49.2113 28.1962 49.2655C28.2213 49.3158 28.2455 49.3687 28.2697 49.423L28.2934 49.4762L28.3124 49.4772C28.4309 49.3291 28.5527 49.1849 28.6856 49.0525C28.8334 48.9054 28.9955 48.7721 29.1826 48.6628C29.2842 48.6035 29.3897 48.553 29.4974 48.5108C29.5743 48.4807 29.6523 48.4546 29.731 48.4322ZM25.2428 59.7424L25.231 59.7672C25.2046 59.822 25.1812 59.8694 25.1618 59.9071C25.1029 60.0227 25.0383 60.1387 24.9659 60.2542C24.8933 60.3698 24.8159 60.4797 24.7321 60.582L24.7276 60.5873C24.7004 60.6201 24.6717 60.6533 24.6416 60.6867L24.6103 60.7206L24.665 60.7814C24.6999 60.8198 24.7384 60.8618 24.7817 60.9075C24.8662 60.9967 24.9527 61.0833 25.0415 61.1677C25.1304 61.2518 25.2217 61.3336 25.315 61.4135C25.4453 61.5243 25.5789 61.6308 25.7158 61.7322C25.8516 61.8329 25.9917 61.9299 26.1351 62.022C26.2682 62.1074 26.4048 62.189 26.5439 62.2654C26.6838 62.342 26.8257 62.4128 26.9686 62.4767C27.1321 62.5495 27.2986 62.6143 27.4674 62.6702C27.6352 62.726 27.807 62.7737 27.9812 62.8129C28.1499 62.8508 28.322 62.8808 28.4964 62.9014C28.6667 62.9217 28.8362 62.9332 29.0037 62.935C29.394 62.9392 29.8234 62.9173 30.2302 62.8275C30.6304 62.7391 31.009 62.5841 31.3051 62.322C31.5114 62.1394 31.6631 61.9168 31.7738 61.6725C31.8565 61.4898 31.9167 61.2952 31.9597 61.096C31.8726 61.1466 31.7834 61.1937 31.693 61.2367C31.5647 61.2974 31.4324 61.351 31.2974 61.395C31.1766 61.4341 31.0523 61.4653 30.9263 61.4884C30.801 61.5115 30.6747 61.526 30.5477 61.532C30.4216 61.5378 30.2938 61.5353 30.1663 61.5238C30.0405 61.5125 29.917 61.4927 29.7975 61.4642L29.7889 61.4618C29.6933 61.4386 29.6007 61.41 29.5104 61.3766C29.4166 61.3417 29.3255 61.3015 29.2365 61.2568C29.1602 61.2184 29.087 61.1777 29.0153 61.1355C28.9439 61.0933 28.8737 61.0498 28.8038 61.0062C28.7102 60.9479 28.649 60.8568 28.6259 60.7568C28.603 60.6573 28.6178 60.5488 28.6759 60.4556L28.6762 60.4554C28.7346 60.3619 28.8259 60.3009 28.9257 60.2778C29.0257 60.2547 29.1343 60.2695 29.2276 60.3278L29.2302 60.3294C29.3511 60.4049 29.4724 60.4805 29.5967 60.543C29.6596 60.5747 29.7228 60.6026 29.7862 60.6264C29.8488 60.6498 29.9142 60.6696 29.9831 60.6862C30.0692 60.7066 30.1555 60.7206 30.2402 60.7281C30.3293 60.7362 30.4198 60.7377 30.5099 60.7334C30.6015 60.7291 30.6925 60.7186 30.7821 60.7022C30.8719 60.6857 30.9615 60.6631 31.05 60.6345C31.1532 60.6008 31.2545 60.5599 31.3522 60.5134V60.5129C31.458 60.4624 31.5599 60.4057 31.656 60.3451C31.7514 60.2851 31.8457 60.2186 31.935 60.1465C32.0163 60.0805 32.0935 60.0096 32.1637 59.9343C32.2349 59.8577 32.3016 59.7757 32.3627 59.6901C32.4065 59.6289 32.4472 59.5656 32.4847 59.5008L32.4483 59.5033C32.3756 59.508 32.3001 59.5109 32.2226 59.5118C32.0711 59.5138 31.9218 59.5083 31.775 59.4958C31.6259 59.4832 31.4746 59.4629 31.3235 59.4355C31.0782 59.391 30.8405 59.3288 30.6067 59.2564C30.4 59.1921 30.1932 59.1185 29.9863 59.0422C29.9618 59.0761 29.9368 59.11 29.9112 59.1437C29.8676 59.2007 29.8254 59.2539 29.7846 59.3026C29.6762 59.4322 29.5598 59.5555 29.435 59.6698C29.3157 59.7791 29.1892 59.88 29.0553 59.9702C28.9241 60.0589 28.7862 60.1372 28.6422 60.2035C28.5014 60.2683 28.3552 60.3215 28.2048 60.3619C28.0591 60.4012 27.9094 60.4282 27.758 60.4443C27.6015 60.4607 27.4432 60.4652 27.286 60.4591C27.1242 60.4529 26.9635 60.4356 26.8061 60.4081C26.6445 60.3803 26.4843 60.3416 26.3273 60.2932C26.1716 60.2455 26.0178 60.1874 25.8685 60.1188C25.7253 60.0531 25.5864 59.9779 25.4548 59.8928C25.398 59.8559 25.3439 59.8187 25.2934 59.781L25.2428 59.7424ZM22.7724 61.5552C22.8514 61.6212 22.9293 61.6888 23.0059 61.7583C23.147 61.8862 23.2836 62.0213 23.4139 62.1652C23.5558 62.3217 23.6876 62.4864 23.8106 62.6567C23.9344 62.8283 24.0488 63.0046 24.1555 63.1836C24.2518 63.3459 24.3439 63.5144 24.4327 63.6869C24.5218 63.8599 24.6045 64.0315 24.6833 64.2017C24.7977 64.4493 24.9054 64.6982 25.0093 64.9484C25.113 65.1988 25.2131 65.4502 25.3123 65.7028L25.3802 65.8759C25.4408 66.0309 25.5059 66.1977 25.5879 66.334C25.6166 66.3815 25.6471 66.4244 25.6825 66.4619C25.7159 66.4973 25.7543 66.5279 25.8003 66.5533C25.8541 66.5829 25.9162 66.6052 25.9807 66.6213C26.0564 66.6399 26.1346 66.6499 26.2073 66.653C26.2818 66.656 26.36 66.6522 26.4365 66.6399C26.5047 66.6288 26.5706 66.611 26.6301 66.5852C26.6848 66.5615 26.7341 66.5309 26.7791 66.4939C26.8241 66.4571 26.8652 66.4134 26.9024 66.3641C26.9484 66.3031 26.9875 66.2353 27.0201 66.1642C27.0578 66.0826 27.0876 65.9962 27.111 65.91C27.1381 65.8102 27.158 65.7071 27.1728 65.6036C27.1879 65.4987 27.198 65.3927 27.205 65.2882C27.2134 65.1662 27.2181 65.0471 27.2207 64.9304C27.2231 64.8093 27.2239 64.689 27.2239 64.5694C27.2244 64.3286 27.2231 64.0872 27.2211 63.8459L27.2166 63.4293C27.1278 63.3998 27.042 63.3692 26.9595 63.3378C26.8551 63.2979 26.7492 63.2541 26.642 63.2062C26.4792 63.1337 26.319 63.0538 26.1623 62.9679L26.1618 62.9676C26.0053 62.8825 25.8521 62.7908 25.7022 62.6947C25.5452 62.5937 25.3902 62.4867 25.2386 62.3739C25.086 62.2609 24.9381 62.1431 24.7953 62.0213C24.6906 61.9324 24.589 61.8407 24.4895 61.7468C24.3907 61.6529 24.2939 61.556 24.1993 61.456C24.1507 61.4045 24.1044 61.3545 24.0604 61.3055L23.9784 61.2134C23.8866 61.2644 23.7925 61.309 23.6966 61.348C23.5731 61.3982 23.4453 61.4391 23.314 61.4716C23.1844 61.5032 23.0524 61.5265 22.9201 61.5416C22.871 61.5471 22.8217 61.5516 22.7724 61.5552Z" fill="white"/>
</svg>
