<svg width="40" height="40" viewBox="0 0 40 40" fill="none" xmlns="http://www.w3.org/2000/svg">
<rect width="40" height="40" fill="#8B8B8B"/>
<path d="M25.582 23.3522H24.4077L23.9914 22.9508C25.4483 21.2561 26.3253 19.056 26.3253 16.6627C26.3253 11.3259 21.9994 7 16.6627 7C11.3259 7 7 11.3259 7 16.6627C7 21.9994 11.3259 26.3253 16.6627 26.3253C19.056 26.3253 21.2561 25.4483 22.9508 23.9914L23.3522 24.4077V25.582L30.785 33L33 30.785L25.582 23.3522ZM16.6627 23.3522C12.9611 23.3522 9.97313 20.3642 9.97313 16.6627C9.97313 12.9611 12.9611 9.97313 16.6627 9.97313C20.3642 9.97313 23.3522 12.9611 23.3522 16.6627C23.3522 20.3642 20.3642 23.3522 16.6627 23.3522Z" fill="black"/>
</svg>
