<svg width="30" height="30" viewBox="0 0 30 30" fill="none" xmlns="http://www.w3.org/2000/svg">
<path d="M14.0739 17.224L12.879 15.4755L3.59985 1.89982H7.53267L15.0995 12.8694L16.2982 14.6077L25.6054 28.1002H21.5079L14.0739 17.224ZM17.5724 13.1091L16.3743 11.3723L8.52993 0H0L11.6024 16.9741L12.7984 18.7243L20.5053 30H29.2233L17.5724 13.1091Z" fill="#FCFCFD"/>
<path d="M12.879 15.4755L14.0739 17.224L12.7984 18.7243L3.21152 30H0.506119L11.6024 16.9741L12.879 15.4755Z" fill="#FCFCFD"/>
<path d="M28.7176 0L17.5724 13.1091L16.2982 14.6077L15.0995 12.8694L16.3743 11.3723L26.0624 0H28.7176Z" fill="#FCFCFD"/>
</svg>
